#!OML:ASF X:\für Bonn\!DataBase\2005_08_11_Bastian_Final\c3d\Bastian.ASF
:FULLY-SPECIFIED
:DEGREES
244
root 18.5962 16.1346 -3.39663 1095.03 -49.7924 14.6167
lowerback 73.5108 0.864629 7.58171
upperback 14.3196 4.46512 1.59276
thorax -4.41338 1.60356 -2.94266
lowerneck -6.03193 -10.5766 -0.758366
upperneck -29.0667 -11.7471 18.0356
head -6.65601 -7.93961 6.53928
rclavicle -8.5875e-014 9.85972e-014
rhumerus 70.2976 11.698 -39.1955
rradius 15.0775
rwrist 0.175694
rhand -33.9028 -7.73299
rfingers 7.12502
rthumb -7.08569 -37.5944
lclavicle -8.5875e-014 9.85972e-014
lhumerus -10.7618 -28.8461 -268.199
lradius 40.9404
lwrist -332.656
lhand -12.0601 -16.8833
lfingers 7.12502
lthumb 13.9991 12.6253
rfemur -69.8829 -28.4688 28.9731
rtibia 67.7287
rfoot -22.0166 -5.56691
rtoes 5.79455
lfemur -64.4743 -9.8116 -27.782
ltibia 47.4864
lfoot 0.833308 -22.3302
ltoes -14.4522
245
root 18.594 16.1708 -3.39481 1094.86 -50.0314 14.309
lowerback 72.8801 1.12288 7.27254
upperback 14.7754 4.40174 1.61046
thorax -3.97253 1.58035 -2.78718
lowerneck -6.34151 -10.4722 -0.622236
upperneck -29.1554 -11.6191 18.0314
head -6.65883 -7.89489 6.50714
rclavicle -1.49486e-013 -7.23576e-014
rhumerus 70.5639 12.4302 -37.6452
rradius 15.413
rwrist -1.56543
rhand -33.419 -7.77806
rfingers 7.12502
rthumb -6.61871 -37.6546
lclavicle -1.49486e-013 -7.23576e-014
lhumerus -10.0039 -28.5259 -268.556
lradius 40.494
lwrist -332.709
lhand -12.0341 -16.8136
lfingers 7.12502
lthumb 14.0242 12.6933
rfemur -69.0248 -28.2606 28.873
rtibia 67.1815
rfoot -21.8241 -5.54363
rtoes 5.70632
lfemur -63.7966 -9.6336 -27.5495
ltibia 47.061
lfoot 0.890936 -22.1107
ltoes -14.4841
246
root 18.5907 16.2068 -3.39252 1094.67 -50.2771 13.9674
lowerback 72.2513 1.39059 6.96251
upperback 15.2625 4.34868 1.63937
thorax -3.49337 1.55837 -2.62057
lowerneck -6.86918 -10.3782 -0.528613
upperneck -29.1252 -11.5225 18.053
head -6.57663 -7.85233 6.46358
rclavicle -6.36111e-015 -8.50798e-014
rhumerus 70.8273 13.051 -36.4349
rradius 15.7514
rwrist -2.99672
rhand -32.8494 -7.83444
rfingers 7.12502
rthumb -6.06879 -37.7275
lclavicle -6.36111e-015 -8.50798e-014
lhumerus -9.19687 -28.2196 -268.961
lradius 40.1108
lwrist -332.711
lhand -11.9145 -16.697
lfingers 7.12502
lthumb 14.1394 12.8018
rfemur -68.0665 -27.9964 28.7178
rtibia 66.6273
rfoot -21.6598 -5.56098
rtoes 5.81047
lfemur -63.0628 -9.43474 -27.3124
ltibia 46.6429
lfoot 0.890006 -21.936
ltoes -14.8034
247
root 18.5879 16.2445 -3.38938 1094.48 -50.546 13.6274
lowerback 71.6002 1.66156 6.63745
upperback 15.781 4.29018 1.68085
thorax -2.97947 1.52975 -2.43033
lowerneck -7.67069 -10.3221 -0.52903
upperneck -28.9997 -11.5046 18.0894
head -6.40132 -7.83022 6.41154
rclavicle -1.59028e-014 2.14687e-014
rhumerus 71.2625 13.7012 -34.807
rradius 16.0661
rwrist -4.78987
rhand -32.3691 -7.83259
rfingers 7.12502
rthumb -5.60512 -37.7385
lclavicle -1.59028e-014 2.14687e-014
lhumerus -8.28156 -27.7976 -269.34
lradius 39.6299
lwrist -332.866
lhand -11.8571 -16.5976
lfingers 7.12502
lthumb 14.1947 12.8974
rfemur -67.0952 -27.6761 28.5327
rtibia 66.0601
rfoot -21.5036 -5.64673
rtoes 5.6361
lfemur -62.319 -9.27117 -27.036
ltibia 46.2128
lfoot 0.862327 -21.6871
ltoes -15.1301
248
root 18.584 16.2818 -3.38594 1094.23 -50.7831 13.2929
lowerback 71.0065 1.89133 6.33503
upperback 16.3207 4.20924 1.72564
thorax -2.43271 1.48898 -2.23317
lowerneck -8.72819 -10.2724 -0.525113
upperneck -28.7889 -11.5252 18.0958
head -6.15737 -7.81479 6.32605
rclavicle 4.45278e-014 1.59028e-014
rhumerus 71.7309 14.2462 -33.305
rradius 16.3815
rwrist -6.55994
rhand -31.8677 -7.73392
rfingers 7.12502
rthumb -5.12102 -37.652
lclavicle 4.45278e-014 1.59028e-014
lhumerus -7.28876 -27.3673 -269.741
lradius 39.1742
lwrist -332.911
lhand -11.8923 -16.5578
lfingers 7.12502
lthumb 14.1608 12.9395
rfemur -66.0178 -27.3754 28.2916
rtibia 65.4778
rfoot -21.335 -5.71344
rtoes 5.68093
lfemur -61.4998 -9.13942 -26.7695
ltibia 45.7844
lfoot 0.857644 -21.4499
ltoes -15.3219
249
root 18.5791 16.3202 -3.3828 1093.93 -51.0396 12.9476
lowerback 70.4642 2.1409 6.01594
upperback 16.867 4.14411 1.79204
thorax -1.87455 1.44671 -2.00908
lowerneck -9.96028 -10.2417 -0.614238
upperneck -28.5032 -11.5792 18.1372
head -5.85028 -7.8003 6.24968
rclavicle -1.59028e-014 -5.40694e-014
rhumerus 72.2195 14.7362 -31.7664
rradius 16.7039
rwrist -8.42373
rhand -31.3576 -7.50151
rfingers 7.12502
rthumb -4.62842 -37.431
lclavicle -1.59028e-014 -5.40694e-014
lhumerus -6.2232 -26.8141 -270.107
lradius 38.6511
lwrist -333.055
lhand -11.9254 -16.5414
lfingers 7.12502
lthumb 14.1289 12.9582
rfemur -64.8663 -27.0512 28.0387
rtibia 64.8825
rfoot -21.1635 -5.82696
rtoes 5.564
lfemur -60.6065 -8.95634 -26.533
ltibia 45.3495
lfoot 0.814164 -21.2301
ltoes -15.7297
250
root 18.5744 16.3591 -3.37869 1093.69 -51.2744 12.4981
lowerback 69.9472 2.38036 5.75022
upperback 17.3965 4.11142 1.8873
thorax -1.32897 1.41233 -1.78553
lowerneck -11.2583 -10.2282 -0.714953
upperneck -28.1732 -11.6656 18.161
head -5.52073 -7.79353 6.16383
rclavicle -6.67916e-014 1.03368e-014
rhumerus 72.7228 15.2036 -30.0938
rradius 17.0174
rwrist -10.3788
rhand -30.8306 -7.26324
rfingers 7.12502
rthumb -4.1196 -37.2032
lclavicle -6.67916e-014 1.03368e-014
lhumerus -5.18239 -26.2925 -270.433
lradius 38.1486
lwrist -333.14
lhand -11.9756 -16.5155
lfingers 7.12502
lthumb 14.0805 12.9875
rfemur -63.6636 -26.7298 27.8342
rtibia 64.2679
rfoot -21.0221 -5.90696
rtoes 5.61738
lfemur -59.6927 -8.85217 -26.1709
ltibia 44.9177
lfoot 0.782204 -20.9443
ltoes -15.9565
251
root 18.5686 16.3978 -3.37428 1093.39 -51.5276 12.0977
lowerback 69.4253 2.6587 5.43847
upperback 17.9401 4.09474 2.00904
thorax -0.770289 1.37587 -1.51963
lowerneck -12.6162 -10.2113 -0.804144
upperneck -27.8437 -11.7553 18.1519
head -5.19135 -7.78517 6.06585
rclavicle -4.13472e-014 -5.1684e-014
rhumerus 73.3025 15.6501 -28.1053
rradius 17.3561
rwrist -12.5815
rhand -30.3528 -7.07825
rfingers 7.12502
rthumb -3.65817 -37.0266
lclavicle -4.13472e-014 -5.1684e-014
lhumerus -4.11408 -25.8545 -270.756
lradius 37.6754
lwrist -333.145
lhand -12.0288 -16.4326
lfingers 7.12502
lthumb 14.0292 13.0739
rfemur -62.4396 -26.3785 27.5834
rtibia 63.6547
rfoot -20.8503 -6.0431
rtoes 5.50671
lfemur -58.7442 -8.7131 -25.8739
ltibia 44.4881
lfoot 0.751347 -20.6732
ltoes -16.2496
252
root 18.5614 16.4363 -3.36954 1093.09 -51.7731 11.6816
lowerback 68.9072 2.92025 5.14469
upperback 18.4587 4.07956 2.12709
thorax -0.236217 1.33714 -1.26566
lowerneck -13.9367 -10.2116 -0.905963
upperneck -27.4922 -11.8639 18.1482
head -4.8628 -7.78301 5.97441
rclavicle -7.95139e-014 6.20208e-014
rhumerus 73.8257 16.0654 -26.2922
rradius 17.6635
rwrist -14.6262
rhand -29.8853 -6.87042
rfingers 7.12502
rthumb -3.20673 -36.8261
lclavicle -7.95139e-014 6.20208e-014
lhumerus -3.11923 -25.3604 -271.042
lradius 37.2162
lwrist -333.12
lhand -12.035 -16.3549
lfingers 7.12502
lthumb 14.0233 13.152
rfemur -61.1697 -26.0056 27.3282
rtibia 63.0274
rfoot -20.7055 -6.20829
rtoes 5.30467
lfemur -57.766 -8.60071 -25.559
ltibia 44.0654
lfoot 0.64128 -20.4113
ltoes -16.7167
